<?xml version="1.0" standalone="no"?>
<!DOCTYPE svg PUBLIC "-//W3C//DTD SVG 20010904//EN"
 "http://www.w3.org/TR/2001/REC-SVG-20010904/DTD/svg10.dtd">
<svg version="1.0" xmlns="http://www.w3.org/2000/svg"
 width="300.000000pt" height="150.000000pt" viewBox="0 0 300.000000 150.000000"
 preserveAspectRatio="xMidYMid meet">

<g transform="translate(0.000000,150.000000) scale(0.100000,-0.100000)"
fill="#000000" stroke="none">
<path d="M990 820 c0 -100 3 -120 15 -120 11 0 15 11 15 39 0 38 1 38 42 44
50 7 68 27 68 79 0 55 -27 78 -90 78 l-50 0 0 -120z m104 58 c16 -26 -4 -52
-43 -56 -30 -3 -31 -2 -31 38 0 40 1 41 31 38 18 -2 37 -11 43 -20z"/>
<path d="M1170 820 c0 -100 3 -120 15 -120 11 0 15 12 15 45 0 36 3 45 18 45
10 0 27 -18 42 -45 14 -25 28 -45 33 -45 18 0 17 29 -2 62 -20 34 -20 34 -1
51 14 11 20 29 20 56 0 51 -26 71 -92 71 l-48 0 0 -120z m101 64 c19 -23 -1
-48 -40 -52 -30 -3 -31 -2 -31 32 0 33 2 36 29 36 16 0 34 -7 42 -16z"/>
<path d="M1355 928 c-3 -8 -4 -61 -3 -119 2 -84 6 -104 18 -104 12 0 15 19 15
114 0 83 -3 115 -12 118 -7 3 -15 -2 -18 -9z"/>
<path d="M1435 928 c-3 -8 -4 -61 -3 -119 2 -84 6 -104 18 -104 12 0 16 17 20
73 l5 73 19 -35 c11 -20 22 -36 25 -36 4 0 16 15 26 33 l20 32 5 -70 c4 -53 9
-70 20 -70 12 0 15 19 15 115 0 133 -12 148 -55 68 -14 -27 -27 -48 -30 -48
-3 0 -16 21 -30 47 -26 49 -46 64 -55 41z"/>
<path d="M1707 933 c-14 -23 -67 -215 -62 -223 11 -17 24 -11 31 15 5 22 12
25 50 25 37 0 44 -3 44 -19 0 -24 18 -37 32 -23 15 15 -53 226 -74 230 -9 2
-18 -1 -21 -5z m41 -105 c10 -38 10 -38 -19 -38 -33 0 -33 1 -18 54 12 43 22
39 37 -16z"/>
<path d="M1845 928 c-3 -8 -4 -61 -3 -119 2 -84 6 -104 18 -104 10 0 16 13 18
43 4 51 25 56 50 11 32 -58 40 -65 53 -52 9 9 7 20 -10 48 l-21 37 20 25 c23
30 26 71 6 98 -17 24 -123 35 -131 13z m100 -63 c0 -27 -4 -30 -32 -33 -32 -3
-33 -2 -33 33 0 35 1 36 33 33 28 -3 32 -6 32 -33z"/>
<path d="M2016 931 c-3 -5 10 -37 29 -71 27 -48 35 -73 35 -112 0 -42 3 -49
18 -46 13 2 18 16 22 58 3 33 16 77 33 108 26 49 28 72 8 72 -5 0 -14 -12 -20
-27 -6 -16 -20 -39 -30 -52 l-19 -25 -26 52 c-26 50 -39 62 -50 43z"/>
<path d="M2220 820 c0 -100 3 -120 15 -120 11 0 15 11 15 38 0 35 14 72 23 62
2 -3 18 -26 36 -52 18 -27 36 -48 41 -48 22 0 18 23 -15 74 -19 30 -35 58 -35
62 0 3 13 23 30 44 25 31 27 40 16 49 -11 9 -22 1 -52 -41 l-39 -53 -3 53 c-2
37 -7 52 -18 52 -11 0 -14 -22 -14 -120z"/>
<path d="M2394 927 c-2 -7 -3 -60 -2 -118 l3 -104 68 -3 c62 -3 67 -1 67 18 0
17 -6 20 -50 20 -49 0 -50 1 -50 29 0 25 4 30 28 33 16 2 27 9 27 18 0 9 -11
16 -27 18 -24 3 -28 8 -28 33 0 28 1 29 50 29 43 0 50 3 50 20 0 18 -7 20 -65
20 -45 0 -67 -4 -71 -13z"/>
<path d="M2555 930 c-3 -5 10 -38 29 -73 27 -48 36 -76 36 -110 0 -35 4 -47
15 -47 11 0 15 12 15 47 0 34 9 62 36 110 32 58 37 83 14 83 -6 0 -21 -22 -35
-50 -14 -27 -27 -50 -30 -50 -3 0 -16 23 -30 50 -25 49 -38 60 -50 40z"/>
</g>
</svg>
